<svg xmlns="http://www.w3.org/2000/svg" width="1280" height="390" viewBox="0 0 1280 390">
  <defs><linearGradient id="g" x1="0" x2="1"><stop stop-color="#0f766e"/><stop offset=".55" stop-color="#15a17b"/><stop offset="1" stop-color="#facc15"/></linearGradient></defs><rect width="1280" height="390" rx="24" fill="url(#g)"/>
  <circle cx="1015" cy="105" r="70" fill="#fff7ad" opacity=".95"/><path d="M855 290c75-64 165-72 266-20" fill="none" stroke="#fff" stroke-width="24" stroke-linecap="round" opacity=".25"/>
  <g transform="translate(710 126)" fill="none" stroke="#fff" stroke-width="15" stroke-linecap="round" stroke-linejoin="round"><circle cx="100" cy="35" r="25" fill="#fff"/><path d="M87 69l-52 70 73 24 60 62"/><path d="M102 97l82 10 44-30"/><path d="M107 164l-39 76"/></g>
  <g transform="translate(910 235)"><circle cx="0" cy="0" r="54" fill="none" stroke="#fff" stroke-width="13" opacity=".9"/><circle cx="150" cy="0" r="54" fill="none" stroke="#fff" stroke-width="13" opacity=".9"/><path d="M0 0l60-92h80l10 92M60-92l90 92M140-92l-140 92" stroke="#fff" stroke-width="10" fill="none" stroke-linecap="round" stroke-linejoin="round" opacity=".9"/></g>
  <text x="72" y="102" font-family="Inter,Arial" font-size="17" font-weight="900" fill="#fff4ce" letter-spacing="2">YAZ SEZONU</text><text x="72" y="160" font-family="Inter,Arial" font-size="46" font-weight="900" fill="#fff">Bisiklet ve açık hava</text><text x="72" y="213" font-family="Inter,Arial" font-size="46" font-weight="900" fill="#fff">ürünlerini kirala.</text><text x="72" y="260" font-family="Inter,Arial" font-size="19" fill="#eafff6">Dönemsel kullanım için satın alma maliyetine girmeden dene.</text><rect x="72" y="302" width="166" height="48" rx="24" fill="#fff"/><text x="107" y="333" font-family="Inter,Arial" font-size="16" font-weight="900" fill="#0f766e">Sezona Gir</text>
</svg>
