<svg xmlns="http://www.w3.org/2000/svg" width="1280" height="390" viewBox="0 0 1280 390">
  <defs><linearGradient id="g" x1="0" x2="1"><stop stop-color="#111827"/><stop offset=".55" stop-color="#2b3444"/><stop offset="1" stop-color="#f35f36"/></linearGradient><radialGradient id="r" cx="75%" cy="25%" r="65%"><stop stop-color="#ffb199" stop-opacity=".55"/><stop offset="1" stop-color="#fff" stop-opacity="0"/></radialGradient></defs>
  <rect width="1280" height="390" rx="24" fill="url(#g)"/><rect width="1280" height="390" rx="24" fill="url(#r)"/>
  <circle cx="1028" cy="155" r="58" fill="#fff" opacity=".16"/><circle cx="960" cy="218" r="22" fill="#fff" opacity=".14"/>
  <g transform="translate(680 82)" stroke="#fff" stroke-width="15" stroke-linecap="round" stroke-linejoin="round" fill="none" opacity=".92"><circle cx="120" cy="42" r="30" fill="#fff" opacity=".95"/><path d="M100 82l-44 58 80 20 55 85"/><path d="M94 106l75-8 62 42"/><path d="M110 170l-58 80"/><path d="M190 245l60 42"/></g>
  <g transform="translate(545 222)"><rect width="220" height="22" rx="11" fill="#fff" opacity=".20"/><rect x="14" y="-8" width="190" height="15" rx="7" fill="#fff" opacity=".34"/><rect x="72" y="22" width="18" height="55" fill="#fff" opacity=".18"/><rect x="146" y="22" width="18" height="55" fill="#fff" opacity=".18"/></g>
  <text x="68" y="100" font-family="Inter,Arial" font-size="17" font-weight="800" fill="#ffd7cc" letter-spacing="2">YENİ SEZON KİRALAMA</text><text x="68" y="160" font-family="Inter,Arial" font-size="46" font-weight="900" fill="#fff">Evde spor deneyimini</text><text x="68" y="213" font-family="Inter,Arial" font-size="46" font-weight="900" fill="#fff">satın almadan başlat.</text><text x="68" y="260" font-family="Inter,Arial" font-size="19" fill="#e8edf5">Koşu bandı, bisiklet ve fitness ürünlerinde esnek aylık kiralama.</text><rect x="68" y="300" width="172" height="48" rx="24" fill="#f35f36"/><text x="101" y="331" font-family="Inter,Arial" font-size="16" font-weight="800" fill="#fff">Ürünleri Keşfet</text>
</svg>
