<svg xmlns="http://www.w3.org/2000/svg" width="1280" height="390" viewBox="0 0 1280 390">
  <defs><linearGradient id="g" x1="0" x2="1"><stop stop-color="#fff5ef"/><stop offset=".52" stop-color="#f8f8fb"/><stop offset="1" stop-color="#dde7ff"/></linearGradient></defs><rect width="1280" height="390" rx="24" fill="url(#g)"/>
  <g transform="translate(720 88)"><rect x="0" y="180" width="430" height="26" rx="13" fill="#111827"/><rect x="78" y="150" width="270" height="34" rx="14" fill="#f35f36"/><rect x="107" y="80" width="214" height="88" rx="16" fill="#fff" stroke="#d8dde8" stroke-width="6"/><path d="M120 113h170M120 137h130" stroke="#9aa3b2" stroke-width="8" stroke-linecap="round"/><circle cx="374" cy="193" r="18" fill="#d1d5db"/><circle cx="55" cy="193" r="18" fill="#d1d5db"/></g>
  <g transform="translate(585 92)" fill="#111827"><circle cx="95" cy="39" r="24"/><path d="M73 70c43-9 75 4 96 40l-38 13c-14-17-33-22-57-15z"/><path d="M117 115l-44 89h-34l46-103z"/><path d="M132 119l90 39-16 30-104-37z"/></g>
  <text x="72" y="102" font-family="Inter,Arial" font-size="17" font-weight="900" fill="#f35f36" letter-spacing="2">YÜRÜYÜŞ BANDI FIRSATLARI</text><text x="72" y="160" font-family="Inter,Arial" font-size="45" font-weight="900" fill="#111827">Küçük alanlara uygun</text><text x="72" y="213" font-family="Inter,Arial" font-size="45" font-weight="900" fill="#111827">katlanabilir modeller.</text><text x="72" y="260" font-family="Inter,Arial" font-size="19" fill="#5b6472">WalkingPad ve portatif yürüme bandı seçeneklerini aylık deneyimle.</text><rect x="72" y="302" width="186" height="48" rx="24" fill="#111827"/><text x="105" y="333" font-family="Inter,Arial" font-size="16" font-weight="800" fill="#fff">Fırsatlara Bak</text>
</svg>
