<svg xmlns="http://www.w3.org/2000/svg" viewBox="0 0 640 320"><defs><linearGradient id="g" x1="0" y1="0" x2="1" y2="1"><stop offset="0" stop-color="#ffb88a"/><stop offset="1" stop-color="#f35f36"/></linearGradient></defs><rect width="640" height="320" rx="28" fill="url(#g)"/><circle cx="530" cy="250" r="110" fill="rgba(255,255,255,.18)"/><circle cx="95" cy="70" r="46" fill="rgba(255,255,255,.15)"/><rect x="74" y="88" width="190" height="116" rx="22" fill="#fff7f2" opacity=".96"/><rect x="96" y="118" width="146" height="12" rx="6" fill="#f8b196"/><rect x="96" y="144" width="124" height="12" rx="6" fill="#f8b196"/><rect x="96" y="170" width="84" height="12" rx="6" fill="#f8b196"/><g transform="translate(330 58)"><rect x="0" y="40" width="140" height="164" rx="40" fill="#fff5ef"/><rect x="20" y="68" width="100" height="12" rx="6" fill="#ffc9b5"/><rect x="20" y="92" width="84" height="12" rx="6" fill="#ffc9b5"/><circle cx="70" cy="26" r="26" fill="#7b4b34"/><path d="M70 8c18 0 32 15 32 33v24H38V41C38 23 52 8 70 8Z" fill="#ff8d64"/></g></svg>