<svg xmlns="http://www.w3.org/2000/svg" viewBox="0 0 640 320"><defs><linearGradient id="g" x1="0" y1="0" x2="1" y2="1"><stop offset="0" stop-color="#54c4ff"/><stop offset="1" stop-color="#005bbb"/></linearGradient></defs><rect width="640" height="320" rx="28" fill="url(#g)"/><circle cx="512" cy="238" r="116" fill="rgba(255,255,255,.15)"/><g transform="translate(74 56)"><rect x="0" y="0" width="238" height="174" rx="26" fill="#f4fbff" opacity=".95"/><rect x="26" y="28" width="186" height="18" rx="9" fill="#b8e8ff"/><rect x="26" y="60" width="152" height="16" rx="8" fill="#b8e8ff"/><rect x="26" y="92" width="170" height="16" rx="8" fill="#b8e8ff"/><rect x="26" y="124" width="118" height="16" rx="8" fill="#b8e8ff"/></g><g transform="translate(360 68)"><rect x="34" y="26" width="118" height="146" rx="24" fill="#ecf9ff"/><rect x="54" y="44" width="78" height="10" rx="5" fill="#bfe9ff"/><rect x="54" y="66" width="78" height="10" rx="5" fill="#bfe9ff"/><path d="M0 154h186" stroke="#fff" stroke-width="20" stroke-linecap="round"/><rect x="56" y="0" width="74" height="74" rx="22" fill="#fff"/><path d="M80 20h26c8 0 14 6 14 14v26c0 8-6 14-14 14H80c-8 0-14-6-14-14V34c0-8 6-14 14-14Zm8 16v22m20-22v22m-28-8h36" stroke="#54c4ff" stroke-width="8" stroke-linecap="round"/></g></svg>