<svg xmlns="http://www.w3.org/2000/svg" viewBox="0 0 640 480">
  <defs><linearGradient id="bg" x1="0" x2="1" y1="0" y2="1"><stop stop-color="#fff7f2"/><stop offset="1" stop-color="#f5f7fb"/></linearGradient><filter id="shadow" x="-20%" y="-20%" width="140%" height="140%"><feDropShadow dx="0" dy="18" stdDeviation="18" flood-color="#14213d" flood-opacity="0.12"/></filter></defs>
  <rect width="640" height="480" rx="48" fill="url(#bg)"/>
  <circle cx="510" cy="90" r="95" fill="#f35f36" opacity="0.10"/>
  <g filter="url(#shadow)">
    <path d="M126 310h348c28 0 48 18 42 39l-3 12c-4 15-22 25-43 25H111c-24 0-42-13-39-30l3-18c3-17 24-28 51-28z" fill="#232a31"/>
    <path d="M137 318h327c20 0 34 11 31 24l-1 6H94l2-8c4-13 19-22 41-22z" fill="#49505a"/>
    <path d="M142 331h316" stroke="#f35f36" stroke-width="7" stroke-linecap="round"/>
    <path d="M422 312V142c0-23 35-23 35 0v171" fill="none" stroke="#222831" stroke-width="18" stroke-linecap="round"/>
    <path d="M430 139h70c20 0 30 10 30 25v12" fill="none" stroke="#222831" stroke-width="17" stroke-linecap="round"/>
    <rect x="491" y="151" width="58" height="32" rx="10" fill="#222831"/>
    <rect x="506" y="161" width="25" height="8" rx="4" fill="#f35f36"/>
    <circle cx="139" cy="382" r="13" fill="#161b22"/><circle cx="454" cy="382" r="13" fill="#161b22"/>
  </g>
  <text x="55" y="70" fill="#17202a" font-family="Arial, sans-serif" font-size="25" font-weight="800">Dynamic Runpad</text>
  <text x="55" y="105" fill="#667085" font-family="Arial, sans-serif" font-size="16">Kiralama ürünü</text>
</svg>