<svg xmlns="http://www.w3.org/2000/svg" viewBox="0 0 640 480">
  <defs><linearGradient id="bg" x1="0" x2="1" y1="0" y2="1"><stop stop-color="#fff8f4"/><stop offset="1" stop-color="#eff4ff"/></linearGradient><filter id="shadow"><feDropShadow dx="0" dy="18" stdDeviation="18" flood-color="#14213d" flood-opacity="0.12"/></filter></defs>
  <rect width="640" height="480" rx="48" fill="url(#bg)"/>
  <circle cx="490" cy="90" r="95" fill="#f35f36" opacity="0.10"/>
  <g filter="url(#shadow)" stroke-linecap="round" stroke-linejoin="round">
    <ellipse cx="320" cy="367" rx="190" ry="18" fill="#dce3ec" opacity=".8"/>
    <path d="M235 344h170" stroke="#1f2937" stroke-width="18"/>
    <path d="M320 338V210" stroke="#1f2937" stroke-width="16"/>
    <path d="M320 210c50 0 86 18 110 56" stroke="#1f2937" stroke-width="16" fill="none"/>
    <path d="M285 210h78" stroke="#1f2937" stroke-width="16"/>
    <path d="M405 344l38-102" stroke="#1f2937" stroke-width="15"/>
    <path d="M244 344l-22-72" stroke="#1f2937" stroke-width="15"/>
    <path d="M214 272h66" stroke="#1f2937" stroke-width="14"/>
    <path d="M445 240h60" stroke="#1f2937" stroke-width="14"/>
    <circle cx="320" cy="297" r="35" fill="white" stroke="#f35f36" stroke-width="14"/>
    <path d="M320 297l-37 35M320 297l41 26" stroke="#f35f36" stroke-width="10"/>
    <rect x="248" y="174" width="144" height="48" rx="24" fill="#fff" stroke="#1f2937" stroke-width="12"/>
    <rect x="290" y="187" width="60" height="15" rx="7" fill="#f35f36"/>
  </g>
  <text x="55" y="70" fill="#17202a" font-family="Arial, sans-serif" font-size="25" font-weight="800">Voit AT 1000</text>
  <text x="55" y="105" fill="#667085" font-family="Arial, sans-serif" font-size="16">Kiralama ürünü • Demo görsel</text>
</svg>